<?xml version="1.0" encoding="UTF-8" standalone="no"?>
<svg
   width="104.87626"
   height="104.89927"
   viewBox="0 0 104.87626 104.89927"
   version="1.1"
   id="svg16"
   sodipodi:docname="logo_oscuro.svg"
   inkscape:version="1.2.1 (9c6d41e410, 2022-07-14)"
   xmlns:inkscape="http://www.inkscape.org/namespaces/inkscape"
   xmlns:sodipodi="http://sodipodi.sourceforge.net/DTD/sodipodi-0.dtd"
   xmlns="http://www.w3.org/2000/svg"
   xmlns:svg="http://www.w3.org/2000/svg">
  <defs
     id="defs20" />
  <sodipodi:namedview
     id="namedview18"
     pagecolor="#ffffff"
     bordercolor="#000000"
     borderopacity="0.25"
     inkscape:showpageshadow="2"
     inkscape:pageopacity="0.0"
     inkscape:pagecheckerboard="0"
     inkscape:deskcolor="#d1d1d1"
     showgrid="false"
     inkscape:zoom="2.9824561"
     inkscape:cx="174.68824"
     inkscape:cy="53.647059"
     inkscape:window-width="2560"
     inkscape:window-height="1369"
     inkscape:window-x="-8"
     inkscape:window-y="-8"
     inkscape:window-maximized="1"
     inkscape:current-layer="svg16" />
  <rect
     id="Rectángulo_2616"
     data-name="Rectángulo 2616"
     width="399"
     height="120"
     fill="none"
     x="-7.8388982"
     y="-6.3184342" />
  <g
     id="g345"
     transform="translate(-7.8388981,-6.3184341)">
    <path
       id="Trazado_453"
       d="M 104.157,38.148 80.88,14.871 A 29.172,29.172 0 0 0 39.626,14.853 l -0.018,0.018 -16.267,16.266 -6.956,6.96 a 27.7,27.7 0 0 0 -2.039,2.3 29.2,29.2 0 0 0 2.039,39.017 l 23.278,23.279 a 29.3,29.3 0 0 0 41.322,0 l 16.317,-16.322 6.956,-6.956 a 21.14,21.14 0 0 0 2.039,-2.3 29.254,29.254 0 0 0 -2.147,-38.967 z M 95.002,70.265 88.05,77.223 71.78,93.488 a 16.326,16.326 0 0 1 -23.016,0 L 25.435,70.265 a 16.274,16.274 0 0 1 -1.934,-20.661 16.732,16.732 0 0 1 1.934,-2.355 l 6.956,-6.956 16.267,-16.27 a 16.292,16.292 0 0 1 23.016,0 L 94.95,47.304 a 16.274,16.274 0 0 1 1.934,20.661 10.827,10.827 0 0 1 -1.882,2.3 z"
       fill="#757de3" />
    <path
       id="Trazado_454"
       d="m 23.506,49.604 a 16.485,16.485 0 0 0 -2.823,9.517 L 9.7,48.398 a 28.586,28.586 0 0 1 4.6,-8 z"
       fill="#3e59d0" />
    <path
       id="Trazado_455"
       d="m 97.201,86.371 -9.155,-9.1 -5.856,5.86 8.683,9.572 z"
       fill="#3e59d0" />
    <path
       id="Trazado_456"
       d="M 60.223,65.972 A 7.413,7.413 0 0 0 58.949,66.054 1.4,1.4 0 0 1 57.767,65.66 L 23.295,31.193 16.339,38.149 a 27.8,27.8 0 0 0 -2.039,2.3 l 35,35.008 a 1.5,1.5 0 0 1 0.408,1.081 v 0 A 10.566,10.566 0 1 0 60.275,65.971 h -0.05 z m 0,15.589 a 5.039,5.039 0 0 1 -4.239,-2.3 4.978,4.978 0 0 1 -0.839,-2.772 5.075,5.075 0 0 1 5.072,-5.072 5.293,5.293 0 0 1 1.993,0.416 5.139,5.139 0 0 1 3.088,4.655 5.045,5.045 0 0 1 -5.017,5.073 z"
       fill="#002461" />
    <path
       id="Trazado_457"
       d="M 96.991,67.909 71.418,42.336 a 2.247,2.247 0 0 1 -0.66,-1.755 q 0.027,-0.378 0.027,-0.756 A 10.566,10.566 0 1 0 60.219,50.396 h 0.009 a 2.359,2.359 0 0 1 1.6,0.664 l 26.169,26.169 9.155,9.155 6.956,-6.956 a 21.147,21.147 0 0 0 2.039,-2.3 L 96.996,67.922 Z M 60.219,44.948 a 4.5,4.5 0 0 1 -2.039,-0.472 5.018,5.018 0 0 1 -2.983,-4.6 5.075,5.075 0 0 1 5.073,-5.073 4.983,4.983 0 0 1 4.761,3.45 5.412,5.412 0 0 1 0.261,1.622 5.078,5.078 0 0 1 -5.073,5.072 z"
       fill="#002461" />
  </g>
</svg>
